<svg class="border shadow-md" viewBox="0 0 1016.4 813.12" style="width: 1016.4px; height: 813.12px;" xmlns="http://www.w3.org/2000/svg" preserveAspectRatio="none"><rect class="bg" id="bg" x="0" y="0" width="1016.4" height="813.12" fill="#000000"/><g transform="rotate(0 508.2 406.56)"><path d="M -405.47 -51.31 S -212.73 -117.31&#xA;            0.00 -51.31 192.73 -121.31&#xA;            405.47 -51.31 598.20 -91.97&#xA;            810.93 -51.31 1003.67 -91.97&#xA;            1216.40 -51.31 1409.13 -124.31&#xA;            1621.87 -51.31 h 110 V 1013.12 H -405.47 Z" fill="#EAEAEA" id="-1"/><path d="M -405.47 30.00 S -212.73 -10.66&#xA;            0.00 30.00 11.47 -33.00&#xA;            405.47 30.00 574.93 -16.00&#xA;            810.93 30.00 1003.67 -10.66&#xA;            1216.40 30.00 1409.13 -10.66&#xA;            1621.87 30.00 h 110 V 1013.12 H -405.47 Z" fill="#d7e3eb" id="0"/><path id="1" d="M -405.47 111.31 S -212.73 53.31&#xA;            0.00 111.31 191.47 70.66&#xA;            405.47 111.31 592.93 50.31&#xA;            810.93 111.31 869.40 70.66&#xA;            1216.40 111.31 1336.87 70.66&#xA;            1621.87 111.31 h 110 V 1013.12 H -405.47 Z" fill="#c4dcec"/><path id="2" d="M -405.47 192.62 S -375.00 121.62&#xA;            0.00 192.62 53.47 151.97&#xA;            405.47 192.62 598.20 114.62&#xA;            810.93 192.62 1003.67 126.62&#xA;            1216.40 192.62 1375.87 151.97&#xA;            1621.87 192.62 h 110 V 1013.12 H -405.47 Z" fill="#b1d5ed"/><path id="3" d="M -405.47 273.94 S -212.73 197.94&#xA;            0.00 273.94 192.73 233.28&#xA;            405.47 273.94 598.20 233.28&#xA;            810.93 273.94 1003.67 233.28&#xA;            1216.40 273.94 1304.87 199.94&#xA;            1621.87 273.94 h 110 V 1013.12 H -405.47 Z" fill="#9eceee"/><path id="4" d="M -405.47 355.25 S -212.73 314.59&#xA;            0.00 355.25 192.73 282.25&#xA;            405.47 355.25 515.93 307.25&#xA;            810.93 355.25 908.40 286.25&#xA;            1216.40 355.25 1351.87 282.25&#xA;            1621.87 355.25 h 110 V 1013.12 H -405.47 Z" fill="#8bc7ef"/><path id="5" d="M -405.47 436.56 S -322.00 393.56&#xA;            0.00 436.56 192.73 395.90&#xA;            405.47 436.56 598.20 395.90&#xA;            810.93 436.56 979.40 395.90&#xA;            1216.40 436.56 1409.13 359.56&#xA;            1621.87 436.56 h 110 V 1013.12 H -405.47 Z" fill="#78c0f0"/><path id="6" d="M -405.47 517.87 S -212.73 477.22&#xA;            0.00 517.87 4.47 477.22&#xA;            405.47 517.87 598.20 477.22&#xA;            810.93 517.87 1003.67 477.22&#xA;            1216.40 517.87 1312.87 470.87&#xA;            1621.87 517.87 h 110 V 1013.12 H -405.47 Z" fill="#65b9f1"/><path id="7" d="M -405.47 599.18 S -212.73 557.18&#xA;            0.00 599.18 192.73 558.53&#xA;            405.47 599.18 501.93 542.18&#xA;            810.93 599.18 1003.67 539.18&#xA;            1216.40 599.18 1326.87 531.18&#xA;            1621.87 599.18 h 110 V 1013.12 H -405.47 Z" fill="#52b2f2"/><path id="8" d="M -405.47 680.50 S -212.73 639.84&#xA;            0.00 680.50 192.73 639.84&#xA;            405.47 680.50 440.93 635.50&#xA;            810.93 680.50 1003.67 639.84&#xA;            1216.40 680.50 1409.13 639.84&#xA;            1621.87 680.50 h 110 V 1013.12 H -405.47 Z" fill="#3fabf3"/><path id="9" d="M -405.47 761.81 S -212.73 703.81&#xA;            0.00 761.81 192.73 683.81&#xA;            405.47 761.81 598.20 721.15&#xA;            810.93 761.81 1003.67 690.81&#xA;            1216.40 761.81 1336.87 721.15&#xA;            1621.87 761.81 h 110 V 1013.12 H -405.47 Z" fill="#2ca4f4"/></g></svg>