<svg class="border shadow-md" viewBox="0 0 1441.44 810.8100000000001" style="width: 1441.44px; height: 810.81px;" xmlns="http://www.w3.org/2000/svg" preserveAspectRatio="none"><rect class="bg" id="bg" x="0" y="0" width="1441.44" height="810.8100000000001" fill="#000000"/><g transform="rotate(0 720.72 405.40500000000003)"><path d="M -547.15 -51.08 S -283.57 -91.62&#xA;            0.00 -51.08 141.15 -116.08&#xA;            547.15 -51.08 810.72 -91.62&#xA;            1094.29 -51.08 1357.87 -115.08&#xA;            1641.44 -51.08 1905.01 -99.08&#xA;            2188.59 -51.08 h 110 V 1010.8100000000001 H -547.15 Z" fill="#A8D5BA" id="-1"/><path d="M -547.15 30.00 S -342.00 -13.00&#xA;            0.00 30.00 263.57 -34.00&#xA;            547.15 30.00 810.72 -10.54&#xA;            1094.29 30.00 1357.87 -10.54&#xA;            1641.44 30.00 1815.59 -48.00&#xA;            2188.59 30.00 h 110 V 1010.8100000000001 H -547.15 Z" fill="#9cd0bf" id="0"/><path id="1" d="M -547.15 111.08 S -400.00 31.08&#xA;            0.00 111.08 263.57 70.54&#xA;            547.15 111.08 810.72 36.08&#xA;            1094.29 111.08 1357.87 70.54&#xA;            1641.44 111.08 1870.59 70.54&#xA;            2188.59 111.08 h 110 V 1010.8100000000001 H -547.15 Z" fill="#90cbc4"/><path id="2" d="M -547.15 192.16 S -486.00 151.62&#xA;            0.00 192.16 263.57 151.62&#xA;            547.15 192.16 672.29 142.16&#xA;            1094.29 192.16 1341.44 150.16&#xA;            1641.44 192.16 1905.01 151.62&#xA;            2188.59 192.16 h 110 V 1010.8100000000001 H -547.15 Z" fill="#84c6c9"/><path id="3" d="M -547.15 273.24 S -283.57 232.70&#xA;            0.00 273.24 90.15 229.24&#xA;            547.15 273.24 564.29 232.70&#xA;            1094.29 273.24 1228.44 223.24&#xA;            1641.44 273.24 1905.01 232.70&#xA;            2188.59 273.24 h 110 V 1010.8100000000001 H -547.15 Z" fill="#78c1ce"/><path id="4" d="M -547.15 354.32 S -283.57 297.32&#xA;            0.00 354.32 263.57 313.78&#xA;            547.15 354.32 579.29 313.78&#xA;            1094.29 354.32 1292.44 313.78&#xA;            1641.44 354.32 1905.01 298.32&#xA;            2188.59 354.32 h 110 V 1010.8100000000001 H -547.15 Z" fill="#6cbcd3"/><path id="5" d="M -547.15 435.41 S -283.57 389.41&#xA;            0.00 435.41 263.57 394.86&#xA;            547.15 435.41 810.72 394.86&#xA;            1094.29 435.41 1357.87 394.86&#xA;            1641.44 435.41 1886.59 394.86&#xA;            2188.59 435.41 h 110 V 1010.8100000000001 H -547.15 Z" fill="#60b7d8"/><path id="6" d="M -547.15 516.49 S -348.00 475.95&#xA;            0.00 516.49 78.15 469.49&#xA;            547.15 516.49 810.72 475.95&#xA;            1094.29 516.49 1357.87 475.95&#xA;            1641.44 516.49 1831.59 475.95&#xA;            2188.59 516.49 h 110 V 1010.8100000000001 H -547.15 Z" fill="#54b2dd"/><path id="7" d="M -547.15 597.57 S -283.57 547.57&#xA;            0.00 597.57 263.57 547.57&#xA;            547.15 597.57 810.72 557.03&#xA;            1094.29 597.57 1341.44 537.57&#xA;            1641.44 597.57 1767.59 542.57&#xA;            2188.59 597.57 h 110 V 1010.8100000000001 H -547.15 Z" fill="#48ade2"/><path id="8" d="M -547.15 678.65 S -283.57 603.65&#xA;            0.00 678.65 263.57 638.11&#xA;            547.15 678.65 810.72 638.11&#xA;            1094.29 678.65 1124.44 638.11&#xA;            1641.44 678.65 1639.59 638.11&#xA;            2188.59 678.65 h 110 V 1010.8100000000001 H -547.15 Z" fill="#3ca8e7"/><path id="9" d="M -547.15 759.73 S -283.57 719.19&#xA;            0.00 759.73 263.57 719.19&#xA;            547.15 759.73 810.72 688.73&#xA;            1094.29 759.73 1355.44 692.73&#xA;            1641.44 759.73 1841.59 719.19&#xA;            2188.59 759.73 h 110 V 1010.8100000000001 H -547.15 Z" fill="#30a3ec"/></g></svg>