<svg class="border shadow-md" viewBox="0 0 1441.44 810.8100000000001" style="width: 1441.44px; height: 810.81px;" xmlns="http://www.w3.org/2000/svg" preserveAspectRatio="none"><rect class="bg" id="bg" x="0" y="0" width="1441.44" height="810.8100000000001" fill="#000000"/><g transform="rotate(0 720.72 405.40500000000003)"><path d="M -547.15 -51.08 S -283.57 -94.08&#xA;            0.00 -51.08 218.15 -91.62&#xA;            547.15 -51.08 697.29 -91.62&#xA;            1094.29 -51.08 1357.87 -91.62&#xA;            1641.44 -51.08 1905.01 -105.08&#xA;            2188.59 -51.08 h 110 V 1010.8100000000001 H -547.15 Z" fill="#EAEAEA" id="-1"/><path d="M -547.15 30.00 S -283.57 -33.00&#xA;            0.00 30.00 263.57 -10.54&#xA;            547.15 30.00 595.29 -40.00&#xA;            1094.29 30.00 1259.44 -10.54&#xA;            1641.44 30.00 1698.59 -40.00&#xA;            2188.59 30.00 h 110 V 1010.8100000000001 H -547.15 Z" fill="#d7e3eb" id="0"/><path id="1" d="M -547.15 111.08 S -325.00 70.54&#xA;            0.00 111.08 263.57 56.08&#xA;            547.15 111.08 810.72 49.08&#xA;            1094.29 111.08 1245.44 46.08&#xA;            1641.44 111.08 1905.01 70.54&#xA;            2188.59 111.08 h 110 V 1010.8100000000001 H -547.15 Z" fill="#c4dcec"/><path id="2" d="M -547.15 192.16 S -460.00 126.16&#xA;            0.00 192.16 263.57 148.16&#xA;            547.15 192.16 810.29 151.62&#xA;            1094.29 192.16 1357.87 121.16&#xA;            1641.44 192.16 1799.59 149.16&#xA;            2188.59 192.16 h 110 V 1010.8100000000001 H -547.15 Z" fill="#b1d5ed"/><path id="3" d="M -547.15 273.24 S -283.57 232.70&#xA;            0.00 273.24 219.15 210.24&#xA;            547.15 273.24 728.29 204.24&#xA;            1094.29 273.24 1357.87 199.24&#xA;            1641.44 273.24 1720.59 232.70&#xA;            2188.59 273.24 h 110 V 1010.8100000000001 H -547.15 Z" fill="#9eceee"/><path id="4" d="M -547.15 354.32 S -508.00 283.32&#xA;            0.00 354.32 157.15 291.32&#xA;            547.15 354.32 745.29 313.78&#xA;            1094.29 354.32 1232.44 275.32&#xA;            1641.44 354.32 1670.59 294.32&#xA;            2188.59 354.32 h 110 V 1010.8100000000001 H -547.15 Z" fill="#8bc7ef"/><path id="5" d="M -547.15 435.41 S -283.57 394.86&#xA;            0.00 435.41 263.57 387.41&#xA;            547.15 435.41 810.72 380.41&#xA;            1094.29 435.41 1357.87 394.86&#xA;            1641.44 435.41 1905.01 363.41&#xA;            2188.59 435.41 h 110 V 1010.8100000000001 H -547.15 Z" fill="#78c0f0"/><path id="6" d="M -547.15 516.49 S -283.57 454.49&#xA;            0.00 516.49 107.15 475.95&#xA;            547.15 516.49 810.72 455.49&#xA;            1094.29 516.49 1357.87 441.49&#xA;            1641.44 516.49 1751.59 475.95&#xA;            2188.59 516.49 h 110 V 1010.8100000000001 H -547.15 Z" fill="#65b9f1"/><path id="7" d="M -547.15 597.57 S -553.00 555.57&#xA;            0.00 597.57 263.57 557.03&#xA;            547.15 597.57 810.72 557.03&#xA;            1094.29 597.57 1266.44 557.03&#xA;            1641.44 597.57 1717.59 557.03&#xA;            2188.59 597.57 h 110 V 1010.8100000000001 H -547.15 Z" fill="#52b2f2"/><path id="8" d="M -547.15 678.65 S -283.57 638.11&#xA;            0.00 678.65 257.15 638.11&#xA;            547.15 678.65 717.29 620.65&#xA;            1094.29 678.65 1318.44 629.65&#xA;            1641.44 678.65 1803.59 608.65&#xA;            2188.59 678.65 h 110 V 1010.8100000000001 H -547.15 Z" fill="#3fabf3"/><path id="9" d="M -547.15 759.73 S -283.57 715.73&#xA;            0.00 759.73 263.57 719.19&#xA;            547.15 759.73 691.29 719.19&#xA;            1094.29 759.73 1199.44 712.73&#xA;            1641.44 759.73 1788.59 719.19&#xA;            2188.59 759.73 h 110 V 1010.8100000000001 H -547.15 Z" fill="#2ca4f4"/></g></svg>