<svg class="border shadow-md" viewBox="0 0 457.38 813.12" style="width: 457.38px; height: 813.12px;" xmlns="http://www.w3.org/2000/svg" preserveAspectRatio="none"><rect class="bg" id="bg" x="0" y="0" width="457.38" height="813.12" fill="#EAEAEA"/><g transform="rotate(0 228.69 406.56)"><path d="M -328.69 -51.31 S -174.34 -91.97&#xA;            0.00 -51.31 154.34 -91.97&#xA;            328.69 -51.31 483.03 -110.31&#xA;            657.38 -51.31 811.72 -100.31&#xA;            986.07 -51.31 h 110 V 1013.12 H -328.69 Z" fill="#1BA4FF" id="-1"/><path d="M -328.69 30.00 S -244.00 -23.00&#xA;            0.00 30.00 154.34 -49.00&#xA;            328.69 30.00 483.03 -10.66&#xA;            657.38 30.00 811.72 -10.66&#xA;            986.07 30.00 h 110 V 1013.12 H -328.69 Z" fill="#2ca9fd" id="0"/><path d="M -328.69 111.31 S -229.00 70.66&#xA;            0.00 111.31 154.34 70.66&#xA;            328.69 111.31 483.03 70.66&#xA;            657.38 111.31 789.07 70.66&#xA;            986.07 111.31 h 110 V 1013.12 H -328.69 Z" fill="#3daefb" id="1"/><path d="M -328.69 192.62 S -174.34 138.62&#xA;            0.00 192.62 154.34 151.97&#xA;            328.69 192.62 424.38 112.62&#xA;            657.38 192.62 811.72 146.62&#xA;            986.07 192.62 h 110 V 1013.12 H -328.69 Z" fill="#4eb3f9" id="2"/><path d="M -328.69 273.94 S -174.34 233.28&#xA;            0.00 273.94 154.34 230.94&#xA;            328.69 273.94 371.38 233.28&#xA;            657.38 273.94 746.07 203.94&#xA;            986.07 273.94 h 110 V 1013.12 H -328.69 Z" fill="#5fb8f7" id="3"/><path d="M -328.69 355.25 S -174.34 276.25&#xA;            0.00 355.25 154.34 314.59&#xA;            328.69 355.25 483.03 286.25&#xA;            657.38 355.25 718.07 314.59&#xA;            986.07 355.25 h 110 V 1013.12 H -328.69 Z" fill="#70bdf5" id="4"/><path d="M -328.69 436.56 S -211.00 383.56&#xA;            0.00 436.56 154.34 357.56&#xA;            328.69 436.56 331.38 395.90&#xA;            657.38 436.56 811.72 395.90&#xA;            986.07 436.56 h 110 V 1013.12 H -328.69 Z" fill="#81c2f3" id="5"/><path d="M -328.69 517.87 S -174.34 477.22&#xA;            0.00 517.87 91.69 474.87&#xA;            328.69 517.87 483.03 477.22&#xA;            657.38 517.87 811.72 442.87&#xA;            986.07 517.87 h 110 V 1013.12 H -328.69 Z" fill="#92c7f1" id="6"/><path d="M -328.69 599.18 S -276.00 558.18&#xA;            0.00 599.18 154.34 548.18&#xA;            328.69 599.18 483.03 558.53&#xA;            657.38 599.18 725.07 558.53&#xA;            986.07 599.18 h 110 V 1013.12 H -328.69 Z" fill="#a3ccef" id="7"/><path d="M -328.69 680.50 S -260.00 634.50&#xA;            0.00 680.50 154.34 608.50&#xA;            328.69 680.50 321.38 611.50&#xA;            657.38 680.50 811.72 600.50&#xA;            986.07 680.50 h 110 V 1013.12 H -328.69 Z" fill="#b4d1ed" id="8"/><path d="M -328.69 761.81 S -174.34 721.15&#xA;            0.00 761.81 52.69 709.81&#xA;            328.69 761.81 440.38 721.15&#xA;            657.38 761.81 781.07 692.81&#xA;            986.07 761.81 h 110 V 1013.12 H -328.69 Z" fill="#c5d6eb" id="9"/></g></svg>