<svg class="border shadow-md" viewBox="0 0 1016.4 813.12" style="width: 1016.4px; height: 813.12px;" xmlns="http://www.w3.org/2000/svg" preserveAspectRatio="none"><rect class="bg" id="bg" x="0" y="0" width="1016.4" height="813.12" fill="#ffffff"/><g transform="rotate(0 508.2 406.56)"><path d="M -608.20 -51.31 S -599.00 -103.31&#xA;            0.00 -51.31 155.20 -91.97&#xA;            608.20 -51.31 902.30 -106.31&#xA;            1216.40 -51.31 1510.50 -91.97&#xA;            1824.60 -51.31 h 110 V 1013.12 H -608.20 Z" fill="#1BA4FF" id="-1"/><path d="M -608.20 30.00 S -380.00 -10.66&#xA;            0.00 30.00 294.10 -10.66&#xA;            608.20 30.00 668.40 -10.66&#xA;            1216.40 30.00 1408.60 -10.66&#xA;            1824.60 30.00 h 110 V 1013.12 H -608.20 Z" fill="#2daafd" id="0"/><path d="M -608.20 111.31 S -314.10 48.31&#xA;            0.00 111.31 294.10 54.31&#xA;            608.20 111.31 786.40 70.66&#xA;            1216.40 111.31 1510.50 70.66&#xA;            1824.60 111.31 h 110 V 1013.12 H -608.20 Z" fill="#3fb0fb" id="1"/><path d="M -608.20 192.62 S -314.10 151.97&#xA;            0.00 192.62 98.20 151.97&#xA;            608.20 192.62 902.30 151.97&#xA;            1216.40 192.62 1343.60 125.62&#xA;            1824.60 192.62 h 110 V 1013.12 H -608.20 Z" fill="#51b6f9" id="2"/><path d="M -608.20 273.94 S -314.10 233.28&#xA;            0.00 273.94 294.10 233.28&#xA;            608.20 273.94 838.40 233.28&#xA;            1216.40 273.94 1510.50 233.28&#xA;            1824.60 273.94 h 110 V 1013.12 H -608.20 Z" fill="#63bcf7" id="3"/><path d="M -608.20 355.25 S -522.00 314.25&#xA;            0.00 355.25 253.20 314.59&#xA;            608.20 355.25 603.40 314.59&#xA;            1216.40 355.25 1349.60 314.59&#xA;            1824.60 355.25 h 110 V 1013.12 H -608.20 Z" fill="#75c2f5" id="4"/><path d="M -608.20 436.56 S -333.00 360.56&#xA;            0.00 436.56 294.10 370.56&#xA;            608.20 436.56 902.30 366.56&#xA;            1216.40 436.56 1510.50 362.56&#xA;            1824.60 436.56 h 110 V 1013.12 H -608.20 Z" fill="#87c8f3" id="5"/><path d="M -608.20 517.87 S -314.10 477.22&#xA;            0.00 517.87 50.20 477.22&#xA;            608.20 517.87 902.30 477.22&#xA;            1216.40 517.87 1505.60 465.87&#xA;            1824.60 517.87 h 110 V 1013.12 H -608.20 Z" fill="#99cef1" id="6"/><path d="M -608.20 599.18 S -314.10 551.18&#xA;            0.00 599.18 294.10 527.18&#xA;            608.20 599.18 902.30 558.53&#xA;            1216.40 599.18 1510.50 521.18&#xA;            1824.60 599.18 h 110 V 1013.12 H -608.20 Z" fill="#abd4ef" id="7"/><path d="M -608.20 680.50 S -463.00 639.84&#xA;            0.00 680.50 285.20 623.50&#xA;            608.20 680.50 902.30 639.84&#xA;            1216.40 680.50 1510.50 639.84&#xA;            1824.60 680.50 h 110 V 1013.12 H -608.20 Z" fill="#bddaed" id="8"/><path d="M -608.20 761.81 S -314.10 689.81&#xA;            0.00 761.81 286.20 716.81&#xA;            608.20 761.81 854.40 687.81&#xA;            1216.40 761.81 1451.60 681.81&#xA;            1824.60 761.81 h 110 V 1013.12 H -608.20 Z" fill="#cfe0eb" id="9"/></g></svg>