<svg class="border shadow-md" viewBox="0 0 457.38 813.12" style="width: 457.38px; height: 813.12px;" xmlns="http://www.w3.org/2000/svg" preserveAspectRatio="none"><rect class="bg" id="bg" x="0" y="0" width="457.38" height="813.12" fill="#000000"/><g transform="rotate(0 228.69 406.56)"><path d="M -219.13 -51.31 S -156.00 -91.97&#xA;            0.00 -51.31 6.13 -117.31&#xA;            219.13 -51.31 213.25 -118.31&#xA;            438.25 -51.31 508.38 -122.31&#xA;            657.38 -51.31 703.51 -91.97&#xA;            876.51 -51.31 h 110 V 1013.12 H -219.13 Z" fill="#EAEAEA" id="-1"/><path d="M -219.13 30.00 S -162.00 -10.66&#xA;            0.00 30.00 34.13 -10.66&#xA;            219.13 30.00 318.69 -10.66&#xA;            438.25 30.00 537.82 -10.66&#xA;            657.38 30.00 756.94 -40.00&#xA;            876.51 30.00 h 110 V 1013.12 H -219.13 Z" fill="#d7e3eb" id="0"/><path id="1" d="M -219.13 111.31 S -119.56 70.66&#xA;            0.00 111.31 99.56 70.66&#xA;            219.13 111.31 279.25 45.31&#xA;            438.25 111.31 435.38 70.66&#xA;            657.38 111.31 688.51 44.31&#xA;            876.51 111.31 h 110 V 1013.12 H -219.13 Z" fill="#c4dcec"/><path id="2" d="M -219.13 192.62 S -119.56 151.97&#xA;            0.00 192.62 64.13 151.97&#xA;            219.13 192.62 318.69 124.62&#xA;            438.25 192.62 448.38 151.97&#xA;            657.38 192.62 713.51 123.62&#xA;            876.51 192.62 h 110 V 1013.12 H -219.13 Z" fill="#b1d5ed"/><path id="3" d="M -219.13 273.94 S -119.56 200.94&#xA;            0.00 273.94 91.13 233.28&#xA;            219.13 273.94 318.69 222.94&#xA;            438.25 273.94 480.38 233.28&#xA;            657.38 273.94 709.51 233.28&#xA;            876.51 273.94 h 110 V 1013.12 H -219.13 Z" fill="#9eceee"/><path id="4" d="M -219.13 355.25 S -119.56 314.59&#xA;            0.00 355.25 65.13 314.59&#xA;            219.13 355.25 282.25 314.59&#xA;            438.25 355.25 533.38 287.25&#xA;            657.38 355.25 708.51 314.59&#xA;            876.51 355.25 h 110 V 1013.12 H -219.13 Z" fill="#8bc7ef"/><path id="5" d="M -219.13 436.56 S -119.56 374.56&#xA;            0.00 436.56 99.56 364.56&#xA;            219.13 436.56 214.25 376.56&#xA;            438.25 436.56 537.82 359.56&#xA;            657.38 436.56 749.51 395.90&#xA;            876.51 436.56 h 110 V 1013.12 H -219.13 Z" fill="#78c0f0"/><path id="6" d="M -219.13 517.87 S -130.00 477.22&#xA;            0.00 517.87 99.56 453.87&#xA;            219.13 517.87 236.25 456.87&#xA;            438.25 517.87 444.38 468.87&#xA;            657.38 517.87 681.51 462.87&#xA;            876.51 517.87 h 110 V 1013.12 H -219.13 Z" fill="#65b9f1"/><path id="7" d="M -219.13 599.18 S -169.00 558.53&#xA;            0.00 599.18 99.56 557.18&#xA;            219.13 599.18 318.69 558.53&#xA;            438.25 599.18 529.38 533.18&#xA;            657.38 599.18 656.51 558.53&#xA;            876.51 599.18 h 110 V 1013.12 H -219.13 Z" fill="#52b2f2"/><path id="8" d="M -219.13 680.50 S -151.00 615.50&#xA;            0.00 680.50 62.13 615.50&#xA;            219.13 680.50 304.25 639.84&#xA;            438.25 680.50 507.38 623.50&#xA;            657.38 680.50 756.94 639.84&#xA;            876.51 680.50 h 110 V 1013.12 H -219.13 Z" fill="#3fabf3"/><path id="9" d="M -219.13 761.81 S -213.00 721.15&#xA;            0.00 761.81 99.56 684.81&#xA;            219.13 761.81 318.69 721.15&#xA;            438.25 761.81 537.82 721.15&#xA;            657.38 761.81 734.51 721.15&#xA;            876.51 761.81 h 110 V 1013.12 H -219.13 Z" fill="#2ca4f4"/></g></svg>