<svg class="border shadow-md" viewBox="0 0 1441.44 810.8100000000001" style="width: 1441.44px; height: 810.81px;" xmlns="http://www.w3.org/2000/svg" preserveAspectRatio="none"><rect class="bg" id="bg" x="0" y="0" width="1441.44" height="810.8100000000001" fill="#EAEAEA"/><g transform="rotate(0 720.72 405.40500000000003)"><path d="M -820.72 -51.08 S -420.36 -91.62&#xA;            0.00 -51.08 400.36 -91.62&#xA;            820.72 -51.08 1221.08 -91.62&#xA;            1641.44 -51.08 2041.80 -122.08&#xA;            2462.16 -51.08 h 110 V 1010.8100000000001 H -820.72 Z" fill="#1BA4FF" id="-1"/><path d="M -820.72 30.00 S -420.36 -10.54&#xA;            0.00 30.00 400.36 -14.00&#xA;            820.72 30.00 1140.44 -14.00&#xA;            1641.44 30.00 2041.80 -10.54&#xA;            2462.16 30.00 h 110 V 1010.8100000000001 H -820.72 Z" fill="#2ca9fd" id="0"/><path d="M -820.72 111.08 S -795.00 70.54&#xA;            0.00 111.08 400.36 61.08&#xA;            820.72 111.08 1064.44 54.08&#xA;            1641.44 111.08 2041.80 70.54&#xA;            2462.16 111.08 h 110 V 1010.8100000000001 H -820.72 Z" fill="#3daefb" id="1"/><path d="M -820.72 192.16 S -560.00 150.16&#xA;            0.00 192.16 400.36 151.62&#xA;            820.72 192.16 1221.08 145.16&#xA;            1641.44 192.16 1933.16 147.16&#xA;            2462.16 192.16 h 110 V 1010.8100000000001 H -820.72 Z" fill="#4eb3f9" id="2"/><path d="M -820.72 273.24 S -459.00 232.70&#xA;            0.00 273.24 400.36 232.70&#xA;            820.72 273.24 1221.08 232.70&#xA;            1641.44 273.24 1710.16 215.24&#xA;            2462.16 273.24 h 110 V 1010.8100000000001 H -820.72 Z" fill="#5fb8f7" id="3"/><path d="M -820.72 354.32 S -467.00 313.78&#xA;            0.00 354.32 84.72 313.78&#xA;            820.72 354.32 1221.08 313.78&#xA;            1641.44 354.32 2041.80 313.78&#xA;            2462.16 354.32 h 110 V 1010.8100000000001 H -820.72 Z" fill="#70bdf5" id="4"/><path d="M -820.72 435.41 S -551.00 394.86&#xA;            0.00 435.41 8.72 394.86&#xA;            820.72 435.41 1221.08 394.86&#xA;            1641.44 435.41 2041.80 394.86&#xA;            2462.16 435.41 h 110 V 1010.8100000000001 H -820.72 Z" fill="#81c2f3" id="5"/><path d="M -820.72 516.49 S -420.36 475.95&#xA;            0.00 516.49 400.36 475.95&#xA;            820.72 516.49 1221.08 448.49&#xA;            1641.44 516.49 2041.80 467.49&#xA;            2462.16 516.49 h 110 V 1010.8100000000001 H -820.72 Z" fill="#92c7f1" id="6"/><path d="M -820.72 597.57 S -527.00 557.03&#xA;            0.00 597.57 150.72 523.57&#xA;            820.72 597.57 1221.08 557.03&#xA;            1641.44 597.57 2041.80 557.03&#xA;            2462.16 597.57 h 110 V 1010.8100000000001 H -820.72 Z" fill="#a3ccef" id="7"/><path d="M -820.72 678.65 S -495.00 638.11&#xA;            0.00 678.65 188.72 638.11&#xA;            820.72 678.65 1221.08 638.11&#xA;            1641.44 678.65 1977.16 638.11&#xA;            2462.16 678.65 h 110 V 1010.8100000000001 H -820.72 Z" fill="#b4d1ed" id="8"/><path d="M -820.72 759.73 S -767.00 719.19&#xA;            0.00 759.73 93.72 706.73&#xA;            820.72 759.73 821.44 719.19&#xA;            1641.44 759.73 2031.16 699.73&#xA;            2462.16 759.73 h 110 V 1010.8100000000001 H -820.72 Z" fill="#c5d6eb" id="9"/></g></svg>