<?xml version="1.0" encoding="UTF-8"?>
<!DOCTYPE svg PUBLIC "-//W3C//DTD SVG 1.1//EN" "http://www.w3.org/Graphics/SVG/1.1/DTD/svg11.dtd">
<svg xmlns="http://www.w3.org/2000/svg" version="1.1" width="884px" height="497px" style="shape-rendering:geometricPrecision; text-rendering:geometricPrecision; image-rendering:optimizeQuality; fill-rule:evenodd; clip-rule:evenodd" xmlns:xlink="http://www.w3.org/1999/xlink">
<g><path style="opacity:1" fill="#a7d4ba" d="M -0.5,-0.5 C 99.1667,-0.5 198.833,-0.5 298.5,-0.5C 298.5,0.833333 298.5,2.16667 298.5,3.5C 285.027,5.03811 271.527,6.37144 258,7.5C 244.8,6.72702 231.633,5.56036 218.5,4C 198.972,2.54766 179.639,3.88099 160.5,8C 151.167,8.66667 141.833,8.66667 132.5,8C 115.977,4.63458 99.3101,2.46791 82.5,1.5C 70.358,1.80113 58.358,3.30113 46.5,6C 30.823,6.62931 15.1563,6.46264 -0.5,5.5C -0.5,3.5 -0.5,1.5 -0.5,-0.5 Z"/></g>
<g><path style="opacity:1" fill="#9fd1bd" d="M 298.5,3.5 C 298.5,3.83333 298.5,4.16667 298.5,4.5C 284.788,6.89362 270.955,8.22695 257,8.5C 238.818,7.42432 220.651,6.09099 202.5,4.5C 184.127,6.17344 165.794,8.17344 147.5,10.5C 125.633,8.10544 103.799,5.43877 82,2.5C 68.4531,3.94231 54.9531,5.77564 41.5,8C 27.4551,8.66478 13.4551,8.16478 -0.5,6.5C -0.5,6.16667 -0.5,5.83333 -0.5,5.5C 15.1563,6.46264 30.823,6.62931 46.5,6C 58.358,3.30113 70.358,1.80113 82.5,1.5C 99.3101,2.46791 115.977,4.63458 132.5,8C 141.833,8.66667 151.167,8.66667 160.5,8C 179.639,3.88099 198.972,2.54766 218.5,4C 231.633,5.56036 244.8,6.72702 258,7.5C 271.527,6.37144 285.027,5.03811 298.5,3.5 Z"/></g>
<g><path style="opacity:1" fill="#9bcfbf" d="M 298.5,4.5 C 298.5,9.83333 298.5,15.1667 298.5,20.5C 290.813,21.4476 283.146,22.6143 275.5,24C 266.167,24.6667 256.833,24.6667 247.5,24C 229.366,19.8061 211.033,16.9728 192.5,15.5C 178.724,16.4625 165.057,18.2958 151.5,21C 129.123,21.2903 106.79,20.6236 84.5,19C 74.5132,20.9938 64.5132,22.9938 54.5,25C 36.0101,25.4844 17.6768,23.9844 -0.5,20.5C -0.5,15.8333 -0.5,11.1667 -0.5,6.5C 13.4551,8.16478 27.4551,8.66478 41.5,8C 54.9531,5.77564 68.4531,3.94231 82,2.5C 103.799,5.43877 125.633,8.10544 147.5,10.5C 165.794,8.17344 184.127,6.17344 202.5,4.5C 220.651,6.09099 238.818,7.42432 257,8.5C 270.955,8.22695 284.788,6.89362 298.5,4.5 Z"/></g>
<g><path style="opacity:1" fill="#90cbc3" d="M 298.5,20.5 C 298.5,24.8333 298.5,29.1667 298.5,33.5C 288.623,35.6248 278.623,36.6248 268.5,36.5C 240.329,34.5997 212.162,32.5997 184,30.5C 168.454,31.8976 152.954,33.5642 137.5,35.5C 121.321,34.3506 105.154,33.0172 89,31.5C 59.2779,36.0975 29.4445,36.7642 -0.5,33.5C -0.5,29.1667 -0.5,24.8333 -0.5,20.5C 17.6768,23.9844 36.0101,25.4844 54.5,25C 64.5132,22.9938 74.5132,20.9938 84.5,19C 106.79,20.6236 129.123,21.2903 151.5,21C 165.057,18.2958 178.724,16.4625 192.5,15.5C 211.033,16.9728 229.366,19.8061 247.5,24C 256.833,24.6667 266.167,24.6667 275.5,24C 283.146,22.6143 290.813,21.4476 298.5,20.5 Z"/></g>
<g><path style="opacity:1" fill="#8bc9c5" d="M 298.5,33.5 C 298.5,34.1667 298.5,34.8333 298.5,35.5C 288.631,37.6499 278.631,38.6499 268.5,38.5C 243.409,37.34 218.409,35.34 193.5,32.5C 187.28,32.4759 180.947,32.6426 174.5,33C 162.065,35.1548 149.565,36.6548 137,37.5C 120.987,36.3555 104.987,35.0222 89,33.5C 59.277,38.0846 29.4436,38.7512 -0.5,35.5C -0.5,34.8333 -0.5,34.1667 -0.5,33.5C 29.4445,36.7642 59.2779,36.0975 89,31.5C 105.154,33.0172 121.321,34.3506 137.5,35.5C 152.954,33.5642 168.454,31.8976 184,30.5C 212.162,32.5997 240.329,34.5997 268.5,36.5C 278.623,36.6248 288.623,35.6248 298.5,33.5 Z"/></g>
<g><path style="opacity:1" fill="#84c6c8" d="M 298.5,35.5 C 298.5,39.1667 298.5,42.8333 298.5,46.5C 294.423,47.3703 290.423,48.5369 286.5,50C 280.333,50.1667 274.167,50.3333 268,50.5C 240.326,49.3329 212.66,47.9996 185,46.5C 180.5,46.6667 176,46.8333 171.5,47C 165.484,49.5626 159.151,51.0626 152.5,51.5C 125.372,49.1977 98.2053,47.531 71,46.5C 64.5,46.6667 58,46.8333 51.5,47C 34.2647,51.0515 16.9314,51.5515 -0.5,48.5C -0.5,44.1667 -0.5,39.8333 -0.5,35.5C 29.4436,38.7512 59.277,38.0846 89,33.5C 104.987,35.0222 120.987,36.3555 137,37.5C 149.565,36.6548 162.065,35.1548 174.5,33C 180.947,32.6426 187.28,32.4759 193.5,32.5C 218.409,35.34 243.409,37.34 268.5,38.5C 278.631,38.6499 288.631,37.6499 298.5,35.5 Z"/></g>
<g><path style="opacity:1" fill="#7fc4ca" d="M 298.5,46.5 C 298.5,47.1667 298.5,47.8333 298.5,48.5C 293.671,50.2388 288.671,51.4054 283.5,52C 278.667,52.1667 273.833,52.3333 269,52.5C 241.5,51.1445 214,49.8111 186.5,48.5C 180.833,48.6667 175.167,48.8333 169.5,49C 166.823,49.2494 164.49,50.2494 162.5,52C 157.667,52.1667 152.833,52.3333 148,52.5C 122.685,50.7792 97.3517,49.4459 72,48.5C 64.5,48.6667 57,48.8333 49.5,49C 32.9455,53.0943 16.2788,53.5943 -0.5,50.5C -0.5,49.8333 -0.5,49.1667 -0.5,48.5C 16.9314,51.5515 34.2647,51.0515 51.5,47C 58,46.8333 64.5,46.6667 71,46.5C 98.2053,47.531 125.372,49.1977 152.5,51.5C 159.151,51.0626 165.484,49.5626 171.5,47C 176,46.8333 180.5,46.6667 185,46.5C 212.66,47.9996 240.326,49.3329 268,50.5C 274.167,50.3333 280.333,50.1667 286.5,50C 290.423,48.5369 294.423,47.3703 298.5,46.5 Z"/></g>
<g><path style="opacity:1" fill="#78c1cd" d="M 298.5,48.5 C 298.5,53.5 298.5,58.5 298.5,63.5C 290.463,65.321 282.296,66.321 274,66.5C 242.338,64.7503 210.671,63.0836 179,61.5C 164.991,61.7582 151.158,63.4249 137.5,66.5C 115.287,62.984 92.9534,61.8173 70.5,63C 57.9251,65.2965 45.2585,66.7965 32.5,67.5C 21.4536,66.92 10.4536,65.92 -0.5,64.5C -0.5,59.8333 -0.5,55.1667 -0.5,50.5C 16.2788,53.5943 32.9455,53.0943 49.5,49C 57,48.8333 64.5,48.6667 72,48.5C 97.3517,49.4459 122.685,50.7792 148,52.5C 152.833,52.3333 157.667,52.1667 162.5,52C 164.49,50.2494 166.823,49.2494 169.5,49C 175.167,48.8333 180.833,48.6667 186.5,48.5C 214,49.8111 241.5,51.1445 269,52.5C 273.833,52.3333 278.667,52.1667 283.5,52C 288.671,51.4054 293.671,50.2388 298.5,48.5 Z"/></g>
<g><path style="opacity:1" fill="#73bfcf" d="M 298.5,63.5 C 298.5,64.1667 298.5,64.8333 298.5,65.5C 289.584,66.9987 280.584,67.6654 271.5,67.5C 241.671,66.0559 211.838,64.7225 182,63.5C 175.167,63.6667 168.333,63.8333 161.5,64C 153.263,65.881 144.929,67.0477 136.5,67.5C 120.187,65.9192 103.853,64.5858 87.5,63.5C 69.0092,65.3084 50.5092,66.9751 32,68.5C 21.0549,68.5614 10.2216,67.5614 -0.5,65.5C -0.5,65.1667 -0.5,64.8333 -0.5,64.5C 10.4536,65.92 21.4536,66.92 32.5,67.5C 45.2585,66.7965 57.9251,65.2965 70.5,63C 92.9534,61.8173 115.287,62.984 137.5,66.5C 151.158,63.4249 164.991,61.7582 179,61.5C 210.671,63.0836 242.338,64.7503 274,66.5C 282.296,66.321 290.463,65.321 298.5,63.5 Z"/></g>
<g><path style="opacity:1" fill="#6cbcd2" d="M 298.5,65.5 C 298.5,69.5 298.5,73.5 298.5,77.5C 284.869,79.9304 271.035,81.2637 257,81.5C 237.329,80.2402 217.662,78.9069 198,77.5C 179.828,78.7924 161.662,80.1257 143.5,81.5C 123.988,80.3506 104.488,79.0172 85,77.5C 66.9655,78.7542 48.9655,80.4209 31,82.5C 20.455,81.8542 9.95496,80.8542 -0.5,79.5C -0.5,74.8333 -0.5,70.1667 -0.5,65.5C 10.2216,67.5614 21.0549,68.5614 32,68.5C 50.5092,66.9751 69.0092,65.3084 87.5,63.5C 103.853,64.5858 120.187,65.9192 136.5,67.5C 144.929,67.0477 153.263,65.881 161.5,64C 168.333,63.8333 175.167,63.6667 182,63.5C 211.838,64.7225 241.671,66.0559 271.5,67.5C 280.584,67.6654 289.584,66.9987 298.5,65.5 Z"/></g>
<g><path style="opacity:1" fill="#66b9d5" d="M 298.5,77.5 C 298.5,78.1667 298.5,78.8333 298.5,79.5C 284.551,81.1601 270.551,82.1601 256.5,82.5C 236.828,81.3144 217.161,79.9811 197.5,78.5C 179.18,80.0819 160.847,81.4152 142.5,82.5C 123.156,81.3879 103.823,80.0546 84.5,78.5C 66.4862,80.0017 48.4862,81.6683 30.5,83.5C 20.0961,83.059 9.76276,82.059 -0.5,80.5C -0.5,80.1667 -0.5,79.8333 -0.5,79.5C 9.95496,80.8542 20.455,81.8542 31,82.5C 48.9655,80.4209 66.9655,78.7542 85,77.5C 104.488,79.0172 123.988,80.3506 143.5,81.5C 161.662,80.1257 179.828,78.7924 198,77.5C 217.662,78.9069 237.329,80.2402 257,81.5C 271.035,81.2637 284.869,79.9304 298.5,77.5 Z"/></g>
<g><path style="opacity:1" fill="#60b7d7" d="M 298.5,79.5 C 298.5,83.8333 298.5,88.1667 298.5,92.5C 284.075,94.5924 269.575,95.9258 255,96.5C 238.171,95.1302 221.338,93.7969 204.5,92.5C 195.334,92.4336 186.334,93.6002 177.5,96C 170,96.1667 162.5,96.3333 155,96.5C 126.66,95.0551 98.3265,93.3885 70,91.5C 65.5,91.6667 61,91.8333 56.5,92C 46.5119,94.7126 36.3453,96.2126 26,96.5C 17.1535,95.9428 8.32017,95.2761 -0.5,94.5C -0.5,89.8333 -0.5,85.1667 -0.5,80.5C 9.76276,82.059 20.0961,83.059 30.5,83.5C 48.4862,81.6683 66.4862,80.0017 84.5,78.5C 103.823,80.0546 123.156,81.3879 142.5,82.5C 160.847,81.4152 179.18,80.0819 197.5,78.5C 217.161,79.9811 236.828,81.3144 256.5,82.5C 270.551,82.1601 284.551,81.1601 298.5,79.5 Z"/></g>
<g><path style="opacity:1" fill="#54b2dc" d="M 298.5,94.5 C 298.5,98.1667 298.5,101.833 298.5,105.5C 283.582,108.042 268.582,110.042 253.5,111.5C 235.709,109.69 217.875,108.357 200,107.5C 181.623,108.601 163.289,110.268 145,112.5C 124.51,110.358 104.01,108.358 83.5,106.5C 70.4021,107.109 57.4021,108.609 44.5,111C 29.4451,111.864 14.4451,111.364 -0.5,109.5C -0.5,104.833 -0.5,100.167 -0.5,95.5C 17.2916,98.6473 34.9583,98.1473 52.5,94C 59,93.8333 65.5,93.6667 72,93.5C 101.175,94.9728 130.342,96.6395 159.5,98.5C 174.137,97.9383 188.637,96.2716 203,93.5C 220.798,95.3851 238.631,96.7185 256.5,97.5C 270.551,97.1601 284.551,96.1601 298.5,94.5 Z"/></g>
<g><path style="opacity:1" fill="#5ab4da" d="M 298.5,92.5 C 298.5,93.1667 298.5,93.8333 298.5,94.5C 284.551,96.1601 270.551,97.1601 256.5,97.5C 238.631,96.7185 220.798,95.3851 203,93.5C 188.637,96.2716 174.137,97.9383 159.5,98.5C 130.342,96.6395 101.175,94.9728 72,93.5C 65.5,93.6667 59,93.8333 52.5,94C 34.9583,98.1473 17.2916,98.6473 -0.5,95.5C -0.5,95.1667 -0.5,94.8333 -0.5,94.5C 8.32017,95.2761 17.1535,95.9428 26,96.5C 36.3453,96.2126 46.5119,94.7126 56.5,92C 61,91.8333 65.5,91.6667 70,91.5C 98.3265,93.3885 126.66,95.0551 155,96.5C 162.5,96.3333 170,96.1667 177.5,96C 186.334,93.6002 195.334,92.4336 204.5,92.5C 221.338,93.7969 238.171,95.1302 255,96.5C 269.575,95.9258 284.075,94.5924 298.5,92.5 Z"/></g>
<g><path style="opacity:1" fill="#4eafdf" d="M 298.5,105.5 C 298.5,106.167 298.5,106.833 298.5,107.5C 283.243,109.82 267.91,111.487 252.5,112.5C 234.835,111.167 217.169,109.834 199.5,108.5C 181.172,110.249 162.839,111.916 144.5,113.5C 124.198,111.42 103.865,109.754 83.5,108.5C 77.8333,108.667 72.1667,108.833 66.5,109C 44.2454,114.216 21.9121,114.716 -0.5,110.5C -0.5,110.167 -0.5,109.833 -0.5,109.5C 14.4451,111.364 29.4451,111.864 44.5,111C 57.4021,108.609 70.4021,107.109 83.5,106.5C 104.01,108.358 124.51,110.358 145,112.5C 163.289,110.268 181.623,108.601 200,107.5C 217.875,108.357 235.709,109.69 253.5,111.5C 268.582,110.042 283.582,108.042 298.5,105.5 Z"/></g>
<g><path style="opacity:1" fill="#48ace1" d="M 298.5,107.5 C 298.5,112.5 298.5,117.5 298.5,122.5C 290.493,122.334 282.493,122.5 274.5,123C 266.581,124.814 258.581,125.981 250.5,126.5C 233.039,124.63 215.539,123.296 198,122.5C 179.817,123.627 161.65,124.96 143.5,126.5C 125.803,125.608 108.136,124.274 90.5,122.5C 71.7768,124.398 53.1102,126.732 34.5,129.5C 22.6479,129.024 10.9813,127.358 -0.5,124.5C -0.5,119.833 -0.5,115.167 -0.5,110.5C 21.9121,114.716 44.2454,114.216 66.5,109C 72.1667,108.833 77.8333,108.667 83.5,108.5C 103.865,109.754 124.198,111.42 144.5,113.5C 162.839,111.916 181.172,110.249 199.5,108.5C 217.169,109.834 234.835,111.167 252.5,112.5C 267.91,111.487 283.243,109.82 298.5,107.5 Z"/></g>
<g><path style="opacity:1" fill="#41aae4" d="M 298.5,122.5 C 298.5,122.833 298.5,123.167 298.5,123.5C 282.631,123.306 266.964,124.973 251.5,128.5C 233.556,126.247 215.556,124.58 197.5,123.5C 179.648,124.961 161.814,126.627 144,128.5C 121.57,125.773 99.0699,124.606 76.5,125C 62.6191,127.814 48.6191,129.647 34.5,130.5C 22.7203,130.103 11.0536,128.769 -0.5,126.5C -0.5,125.833 -0.5,125.167 -0.5,124.5C 10.9813,127.358 22.6479,129.024 34.5,129.5C 53.1102,126.732 71.7768,124.398 90.5,122.5C 108.136,124.274 125.803,125.608 143.5,126.5C 161.65,124.96 179.817,123.627 198,122.5C 215.539,123.296 233.039,124.63 250.5,126.5C 258.581,125.981 266.581,124.814 274.5,123C 282.493,122.5 290.493,122.334 298.5,122.5 Z"/></g>
<g><path style="opacity:1" fill="#3ba7e7" d="M 298.5,123.5 C 298.5,127.833 298.5,132.167 298.5,136.5C 285.27,140.178 271.77,142.512 258,143.5C 241.018,142.031 224.184,139.531 207.5,136C 197.833,135.333 188.167,135.333 178.5,136C 164.977,138.921 151.311,140.754 137.5,141.5C 119.698,139.689 101.865,138.355 84,137.5C 65.8325,138.792 47.6658,140.125 29.5,141.5C 19.4561,141.375 9.45614,140.708 -0.5,139.5C -0.5,135.167 -0.5,130.833 -0.5,126.5C 11.0536,128.769 22.7203,130.103 34.5,130.5C 48.6191,129.647 62.6191,127.814 76.5,125C 99.0699,124.606 121.57,125.773 144,128.5C 161.814,126.627 179.648,124.961 197.5,123.5C 215.556,124.58 233.556,126.247 251.5,128.5C 266.964,124.973 282.631,123.306 298.5,123.5 Z"/></g>
<g><path style="opacity:1" fill="#34a5e9" d="M 298.5,136.5 C 298.5,137.167 298.5,137.833 298.5,138.5C 285.042,141.946 271.376,144.28 257.5,145.5C 235.886,142.11 214.219,139.11 192.5,136.5C 179.094,137.79 165.76,139.623 152.5,142C 147.167,142.167 141.833,142.333 136.5,142.5C 119.175,141.353 101.842,140.353 84.5,139.5C 65.8153,140.502 47.1487,141.835 28.5,143.5C 18.8115,143.074 9.14486,142.407 -0.5,141.5C -0.5,140.833 -0.5,140.167 -0.5,139.5C 9.45614,140.708 19.4561,141.375 29.5,141.5C 47.6658,140.125 65.8325,138.792 84,137.5C 101.865,138.355 119.698,139.689 137.5,141.5C 151.311,140.754 164.977,138.921 178.5,136C 188.167,135.333 197.833,135.333 207.5,136C 224.184,139.531 241.018,142.031 258,143.5C 271.77,142.512 285.27,140.178 298.5,136.5 Z"/></g>
<g><path style="opacity:1" fill="#30a3eb" d="M 298.5,138.5 C 298.5,141.833 298.5,145.167 298.5,148.5C 198.833,148.5 99.1667,148.5 -0.5,148.5C -0.5,146.167 -0.5,143.833 -0.5,141.5C 9.14486,142.407 18.8115,143.074 28.5,143.5C 47.1487,141.835 65.8153,140.502 84.5,139.5C 101.842,140.353 119.175,141.353 136.5,142.5C 141.833,142.333 147.167,142.167 152.5,142C 165.76,139.623 179.094,137.79 192.5,136.5C 214.219,139.11 235.886,142.11 257.5,145.5C 271.376,144.28 285.042,141.946 298.5,138.5 Z"/></g>
<g><path style="opacity:1" fill="#286f9a" d="M 298.5,-0.5 C 298.833,-0.5 299.167,-0.5 299.5,-0.5C 299.5,49.5 299.5,99.5 299.5,149.5C 199.5,149.5 99.5,149.5 -0.5,149.5C -0.5,149.167 -0.5,148.833 -0.5,148.5C 99.1667,148.5 198.833,148.5 298.5,148.5C 298.5,145.167 298.5,141.833 298.5,138.5C 298.5,137.833 298.5,137.167 298.5,136.5C 298.5,132.167 298.5,127.833 298.5,123.5C 298.5,123.167 298.5,122.833 298.5,122.5C 298.5,117.5 298.5,112.5 298.5,107.5C 298.5,106.833 298.5,106.167 298.5,105.5C 298.5,101.833 298.5,98.1667 298.5,94.5C 298.5,93.8333 298.5,93.1667 298.5,92.5C 298.5,88.1667 298.5,83.8333 298.5,79.5C 298.5,78.8333 298.5,78.1667 298.5,77.5C 298.5,73.5 298.5,69.5 298.5,65.5C 298.5,64.8333 298.5,64.1667 298.5,63.5C 298.5,58.5 298.5,53.5 298.5,48.5C 298.5,47.8333 298.5,47.1667 298.5,46.5C 298.5,42.8333 298.5,39.1667 298.5,35.5C 298.5,34.8333 298.5,34.1667 298.5,33.5C 298.5,29.1667 298.5,24.8333 298.5,20.5C 298.5,15.1667 298.5,9.83333 298.5,4.5C 298.5,4.16667 298.5,3.83333 298.5,3.5C 298.5,2.16667 298.5,0.833333 298.5,-0.5 Z"/></g>
</svg>
